<?xml version="1.0" encoding="UTF-8"?>
<svg id="Layer_1" data-name="Layer 1" xmlns="http://www.w3.org/2000/svg" viewBox="0 0 490.1 487.18">
  <defs>
    <style>
      .cls-1 {
        fill: #563128;
      }

      .cls-2 {
        fill: #231f20;
      }

      .cls-3 {
        fill: #648444;
      }

      .cls-4 {
        fill: #9778a9;
      }

      .cls-5 {
        fill: #593f69;
      }

      .cls-6 {
        fill: #803078;
      }
    </style>
  </defs>
  <g>
    <path class="cls-2" d="M50.99,430.04l-.09.94-.94.27-3.05.54-3.28.27c-.15-1.2-.31-1.97-.47-2.31-.17-.34-.41-.61-.74-.79-.33.27-.63.46-.9.58-.27.12-.62.26-1.06.43-.43.17-.83.34-1.19.52-3.44,1.8-9.72,2.7-18.82,2.7-1.74,0-3.02-.17-3.84-.49-.82-.33-1.42-.9-1.77-1.71-.51.06-.94.3-1.3.72l-1.39-.45c-.09-.6-.22-1.02-.38-1.26-.17-.24-.52-.46-1.06-.67l-.58.54c-.96-.24-1.69-.55-2.2-.94-.51-.39-1.33-1.21-2.47-2.47.12-.3.18-.66.18-1.08,0-.75-.31-1.36-.94-1.84l-1.26-1.21-.18-.9-.76-3.41v-.76c0-1.02.19-2.11.58-3.28l-.09-.94.54-1.08,2.83-6.56c.42-.96,1-1.44,1.75-1.44h.09l1.48.09.54-3.77,1.75-1.39,1.84-2.11,1.3-.85.81-.72c.33-.18.64-.3.94-.36.3.06.63.09.99.09.57.03.95.1,1.15.2.19.11.43.37.7.79.48-.72,1.24-1.23,2.29-1.53l-.09-1.39,1.3-.54c1.2-.36,1.94-.59,2.22-.7.28-.1.68-.22,1.19-.34l1.57.09,2.11-.72.99.63c.48.24.79.39.94.45l.18.45c.33.27.54.4.63.4.27,0,.61-.43,1.03-1.3l2.38.54c1.74.39,2.84.69,3.3.9.46.21.89.58,1.28,1.12l2.7-.09-.36-.9-.49-.76-.27-3.19-.27-.94.36-2.29-.36-6.24.09-.67,1.48-.54-.63-.9-.22-1.21-.63-2.02c-.24-.57-.36-1.3-.36-2.2v-.54l.45-6.38-.36-2.83.27-1.21c.54-.12.85-.42.94-.9l-.58-.58c-.66-.06-1.24-.27-1.75-.63v-1.12l-.36-2.74-.18-3.05c0-.54-.33-1.05-.99-1.53.27-1.08.75-1.69,1.44-1.84l2.79-.58,1.84-1.17,2.02-.45.99-.31c.63.72.94,1.5.94,2.34l-.09,1.08-.45,2.38.09,1.3-.22,3.95v3.32l-.54,1.93.09,4.13c-.15.48-.51,1.09-1.08,1.84l1.35,3.77-.27.99v2.16l-.36.9.36,3.05c0,.42-.12.97-.36,1.66h-.99c-.27.93-.4,1.6-.4,2.02,0,.18.03.3.09.36l1.57,2.2-.09,3.23.27,3.77-.18,1.53-.09.67.09.9-.63.76.27,4.22-.09,3.01.36,2.88v1.93l.27,2.2v3.5l.67,3.5.09,2.83.54,2.02.09,1.84v1.39c.33.27.6.87.81,1.8.21.93.31,1.77.31,2.52ZM43.71,411.53l-.45-2.83c-.75-.27-1.12-.64-1.12-1.12v-.18l.36-1.93-.27-3.5v-.9l-.45-1.03.09-1.08c0-.42-.18-.63-.54-.63-.18,0-.29-.07-.31-.22l-1.84.4-.45.09-.63-.09-8.36-2.02-3.05-.09h-.94c-.3,0-.48.03-.54.09l-1.57.63h-2.02l-2.65,1.75-1.84.27-1.3.9-1.84,1.66c-.69.72-1.11,1.36-1.26,1.93l-.18,1.12-1.75,1.84-1.84,2.74c-.51,1.05-.76,1.89-.76,2.52s.12,1.24.36,1.75l.31.81.99,3.68,1.03,1.84.09.99v.58l1.08.45c.81,1.08,1.71,2.07,2.7,2.99.99.91,1.96,1.61,2.92,2.09l2.02.9.67.36,1.35.18h1.12l2.56.94h2.88l4.49-.18c.84-.03,1.96-.26,3.37-.7,1.41-.43,2.46-.82,3.14-1.15l2.07-1.75.99-1.21-.45-1.17.27-1.21.09-1.3-.09-1.84-.18-2.02.09-.27.09-1.48-.36-2.02c-.03-.06-.06-.12-.09-.18,0-.69.67-1.15,2.02-1.39Z"/>
    <path class="cls-2" d="M100.71,428.65l-.45.85-.72,1.08-1.3.49-1.84.99-1.75.54c-1.11.45-1.75.67-1.93.67-.21,0-.41-.11-.61-.34-.2-.22-.29-.43-.29-.61,0-.3.15-.97.45-2.02.15-.3.27-.82.36-1.57l-.9.58-4.04,1.35c-.81.39-1.62.58-2.43.58h-1.84l-2.11.99-1.44.18-4.18.85-1.71-.27-1.21.45-.85.18-1.35-.09-2.96-.63-2.02-.18c-1.38-.18-2.57-.65-3.57-1.42-1-.76-1.75-1.74-2.22-2.94l-1.21-.45-.27-1.12-.09-.81-.63-2.11,1.66-3.32.54-1.48c.18-.39.73-.96,1.66-1.71l3.5-2.88,1.48-.54,2.47-1.03s.09,0,.18.02c.09.02.18.04.27.07.6-1.29,1.74-1.93,3.41-1.93l.27-.27h.94c.39-.48.78-.81,1.17-.99.39-.18,1.12-.37,2.2-.58l5.62-.99,1.66.18,2.11-.45,3.77-.4c1.29-.3,1.93-.91,1.93-1.84,0-.12-.03-.21-.09-.27l-.45-2.02.36-2.92c-.09-.63-.31-1.08-.67-1.37-.36-.28-.9-.47-1.62-.56l-.63-1.03c-.66-1.08-1.2-1.77-1.62-2.09-.42-.31-1.21-.59-2.38-.83l-2.56-.58-2.47-.09-1.21.18c-.27-.12-.48-.27-.63-.45-.15-.18-.27-.45-.36-.81l-1.21.54-1.39,1.3-4.4,2.2c-.93.51-1.54,1-1.84,1.48l-.63.9c-.3.48-.7.72-1.21.72l-.9-.18-1.3-.63-1.39-.27c-.45-.15-.9-.4-1.35-.76s-.67-.69-.67-.99c0-.18.03-.27.09-.27l.76-.54,1.44-1.12,1.57-.27,2.38-1.21,2.96-.99.81-.18,1.93-1.03,1.57.27,5.44-1.17,2.29.09h1.75l1.84.63,5.35,1.03.81.45v.63l-.63.36c.18,1.05.55,1.57,1.12,1.57.06-.03.1-.05.13-.07.03-.01.07-.02.13-.02l1.26-.54h.18c.3,0,.49.15.58.45l.9,1.66.94.72v1.03l-.18,2.29c0,.99.48,1.84,1.44,2.56l.58,6.65-1.21,1.66,1.39,1.62.09.58-.27,4.22.36,3.23v1.75l-.63.18c.06.75.1,1.23.13,1.44.03.21.13.52.31.92s.39.88.63,1.42l.63,1.44ZM93.57,420.83c-.45-.39-.73-.72-.85-.99l.18-1.84-.36-4.13.54-1.21-1.44-.81-.76.18-4.13-.27-1.93.09-1.48-1.03-.9.54-2.47.09-1.75.67-1.03-.58-1.26.76-6.74,3.23-1.48,1.08-1.17,1.75-1.57.94c-.24.24-.36.51-.36.81.03.06.06.12.09.18l.36.54-.09.4.99,4.04-.99,2.56.72.9,1.21-1.44c.42.36.81.66,1.17.9.36.24.79.44,1.3.61.51.17,1.15.34,1.93.52l.94,1.26,3.1.31.85-.85.9.45.63-.36.49-.27c.72.24,1.14.36,1.26.36.9,0,2.07-.42,3.5-1.26.09-.06.21-.13.36-.2.15-.07.37-.2.67-.38,2.7,0,4.48-.55,5.35-1.66l.9-1.17,2.2-1.84.09-.54-.09-.58c.45-.15.73-.33.85-.54.12-.21.21-.61.27-1.21Z"/>
    <path class="cls-2" d="M145.73,390.87l-.36,1.17-2.29,4.9-.94,2.74-1.26,4.04-.58,1.66-1.35,3.14-.67,2.92-1.93,3.05-5.44,12.04-1.44,1.93.63.85-1.12.81-2.38,1.3-1.75,1.57c-.27.18-.51.27-.72.27-.18,0-.39-.12-.63-.36-.21-.48-.31-.73-.31-.76l-.54-2.02-1.08-1.17-1.3-3.05-2.56-4.81-.22-2.47-.09-.99c-.36-.48-.97-.79-1.84-.94.63-.57.94-.99.94-1.26,0-.69-.22-1.28-.65-1.77-.43-.49-.98-.74-1.64-.74l-.58.09-.81-2.83-.81-2.11-.09-2.61-1.93-1.75-3.68-8.27-.67-.72c.45-.96.88-1.54,1.3-1.75l2.65-1.21,1.12-1.08c.06-.06.18-.09.36-.09l1.12.18.99.27.27.9,1.21,2.79.9,4.94,1.66,3.05.76,2.11.9,2.2.18,1.75,1.03,1.03.63,2.56,2.29,4.13-.36,1.57.85.63,1.08.85,2.2,4.49,1.21.54c.3,0,.45-.09.45-.27l1.21-2.56,1.75-3.23,2.02-4.85.81-1.48c.99-.09,1.48-.34,1.48-.76v-.09l-.27-2.92.18-.94,2.11-4.94-.09-3.32,1.48-3.41.63-2.65c.24-.69.81-1.27,1.71-1.75.9-.48,1.83-.72,2.79-.72l1.48.18Z"/>
    <path class="cls-2" d="M191.86,422.49c0,.39-.08.73-.22,1.03l-.9,1.57-2.11,3.64-1.93.13-1.21.99c-.27.27-.73.45-1.39.54l-8.09,1.57-1.26.45-2.88-.27-4.13.36-4.67-.27h-1.3c-.66-.51-1.06-.81-1.21-.9l-4.4-1.57-1.48-1.39-2.92-2.02-2.34-3.1-.9-.76c.36-.72.54-1.36.54-1.93,0-.24-.06-.42-.18-.54l-1.21-1.93-.27-2.56-.09-2.07c0-.69.16-1.6.49-2.74.51-1.8.93-2.88,1.26-3.23l1.66-2.11.85-1.93,2.11-2.02,2.29-3.01,2.02-1.12,2.92-2.02,1.93-1.3.67-.45,1.35-.27,4.09-1.3,3.19-.36,1.93-.81.94-.09c1.53,0,2.81.82,3.86,2.47.57-.06.99-.37,1.26-.94l1.21,1.03,1.66.9,3.77,3.68c.48.6.85,1.12,1.1,1.55.25.43.51.89.76,1.37.25.48.48,1,.67,1.57.19.57.49,1.44.88,2.61l.36,1.12-.45.18-1.75-.36-1.93.63-1.48-.27-1.66.45-3.14-.36-3.01.18-3.14-.54-5.12.09-2.52-.09-6.06.81-2.2-.09-3.05.9-1.08.22-.18,1.08c-.06.75-.17,1.26-.31,1.53-.15.27-.48.58-.99.94l.09.85c.99.75,1.51,1.21,1.57,1.39l1.17,4.58.58,1.12c-.3.3-.45.57-.45.81.03.06.06.12.09.18l1.71.54.4,1.12c.3,1.05.69,1.69,1.17,1.93l2.43.99.81,1.75c.42.21,1.09.38,2.02.49l.63,1.17,1.39.18,3.86,1.39,3.23-.63,8.54-1.39,1.84-1.12,2.88-1.75,2.38-3.1c.42-.51.91-.76,1.48-.76,1.05,0,1.57.46,1.57,1.39ZM181.26,401.34c0-.48-.55-1.48-1.66-3.01l-3.1-2.25-1.03-1.08-1.48-.09-3.41-.27-.81.18-1.93,1.08-2.47.58-3.14,1.17-1.21.45-1.44,2.16c-.9.63-1.39,1.02-1.48,1.17l-.18.54,5.53.4.63-.09,1.03-.31.99.22,2.65.54h.13l3.01-.54.94-.22.72,1.03h1.03l3.95-.81,1.62.18c.75-.09,1.12-.43,1.12-1.03Z"/>
    <path class="cls-6" d="M283.46,400.71c0,2.16-.4,4.24-1.21,6.24l-.9.45-2.56,2.61-2.52,1.44-1.26.22-.85.63-2.83.72c-.93.27-1.39.79-1.39,1.57l.54,1.84-.81.63-.27,1.21c-.09.84-.21,1.37-.36,1.59-.15.22-.4.34-.76.34l-1.48-.27c0,.66.22,1.24.67,1.75l-.85,1.08-.99.76-.85.99-2.92,1.75-.58.85-1.84.54-3.55,2.11-3.86,1.66-4.36,1.3-3.5.36-2.92.63-1.21-.09-.09.36h-1.48l-1.26-.81c-.36.3-.54.63-.54.99h-1.12c-1.35,0-2.34-.14-2.96-.43-.63-.29-1.11-.79-1.44-1.5l-.49.09-.54-.54h-.36l-.18.94c-.6,0-1.03-.05-1.3-.16-.27-.11-.73-.4-1.39-.88-1.29-1.02-2.28-1.94-2.96-2.76-.69-.82-1.29-1.8-1.8-2.94.36-.72.54-1.18.54-1.39l-.09-.54-.63-.63-1.75-.94-.27-1.08.09-.76c.45,0,.76-.07.94-.2s.39-.43.63-.88l-.67-.76-.63.09c-.54,0-.81-.48-.81-1.44,0-.81.18-1.59.54-2.34l1.39-2.92.9-1.93.81-.94.94-1.53.9-.58,1.57-1.84,1.57-.72,1.48-2.29,1.66-1.57.27-1.03,2.74-1.26.85-.85.72-.72c-1.11-.45-1.83-.88-2.16-1.3-.33-.42-.52-1.09-.58-2.02l-1.84.36-2.96-3.28.27-1.21c0-.45-.33-.85-.99-1.21l.99-2.2-.36-.18v-.72c0-.6.08-1.07.25-1.42.16-.34.49-.74.97-1.19.51-.03.85-.11,1.03-.25s.42-.47.72-1.01c.3-.63.93-1.33,1.89-2.09.96-.76,1.83-1.24,2.61-1.42l.27-1.03,1.84-.18,1.12-1.08,5.44-2.11,2.38-1.48,3.1-.09,4.36-.85c1.29.09,2.14.73,2.56,1.93l1.3.4.54,2.02c.45.45.72.87.81,1.26,0,.51-.42.97-1.26,1.39l-.85-.45-3.19-.76-1.21-.45-1.12.45-1.35-.72-.18.54-1.12.27-1.66-.45-2.56.76-.09-.31-1.3-.27-.81.27-2.61.94-1.08.63-.85.27-3.77,3.14c-.3.12-.63.3-.99.54-.15.15-.49,1.23-1.03,3.23l-.36.99,1.12,1.12.99.72.18.94,1.39.9,1.21.85,6.24,1.48,1.21.45.99-.09,5.17.18,2.29-.85,2.47-.09,1.93-.45,1.84.54-1.48,3.59-1.35.58c-1.17.33-1.91.58-2.22.76s-.59.54-.83,1.08l-1.57-.49-.81-.72-.94-.45-1.35.54-1.3-.45-.63.45-2.52-.27-2.47,1.3-1.93-.22-1.12.4.76,1.08-1.75.27-2.56,1.57-1.84.94-3.41,4.04c-.3.3-.88.54-1.75.72-.09.6-.55,1.77-1.39,3.5l-.72,2.56v1.66l-.36.85.45.99.36,2.56.85,1.48.45,1.21.99.99.85,1.39,3.1,3.14c.27.27.6.57.99.9.39.33.75.58,1.08.74.33.17.69.29,1.08.38l2.74.63,3.23.27,1.48-.09.18.45,1.03-.18h2.47l1.39-.63,1.26-.36,4.72-1.84,1.44-.27.31-.85c1.83-1.08,3.14-1.95,3.93-2.63.79-.67,1.59-1.7,2.4-3.08l.81-1.35.27-2.11.31-1.66c-.06-.63-.73-1.47-2.02-2.52l-3.23-2.47c-.81-.84-1.39-1.38-1.75-1.62-.36-.24-.97-.46-1.84-.67l-2.2-1.12-1.48-.27-2.38.63-1.57.4c-.48.12-.88.51-1.21,1.17l-1.08,2.02-1.03,1.03.49,2.11v.09c0,.15-.17.39-.49.72-.39.33-.84.49-1.35.49-.27,0-.49-.09-.67-.27l-.54-.58-1.21-.72c-.42-.33-.63-.85-.63-1.57,0-.9.24-1.54.72-1.93l2.02-1.75,2.7-2.29,3.01-1.12,4.36-1.84,1.84-.36,1.75.09,3.46,1.03,2.52,1.35.18.94.54,1.21.9.36.4-.85-.4-.72,1.12.54,2.79,1.75,2.02.94c1.26,0,3.16-.84,5.71-2.52.9-.54,1.38-.96,1.44-1.26l.67-3.77c0-.81-.7-2.07-2.11-3.77.24-.42.46-.71.65-.88.19-.16.49-.31.88-.43l1.48-.54.85.81.36.54,2.02.85c.33.27.66.85.99,1.75h1.21Z"/>
    <path class="cls-2" d="M367.64,429.41l-1.17.63-2.29,1.21-2.43,1.75c-.18.06-.39.09-.63.09-.21,0-.64-.06-1.3-.18l-.18-2.25.18-1.17.67-2.11-.49-4.45.4-2.47.09-2.29.9-2.2v-.27c0-.42-.27-.82-.81-1.21l-.09-1.03-.18-4.58c0-.36.03-.6.09-.72l1.08-3.23-1.17-1.75-.67-4.13-.36-1.12-.81-.36-2.02-1.26c-.33-.21-1-.31-2.02-.31-1.47,0-2.7.11-3.71.31-1,.21-2.19.63-3.57,1.26-2.1,1.08-3.14,2.01-3.14,2.79v3.19l-1.21.85c0,.06,0,.11-.02.13-.02.03-.04.08-.07.13,0,.54.4,1.06,1.21,1.57l.36,10.29c-.48.24-.78.36-.9.36.03,0-.22-.06-.76-.18l.09,1.03,1.3,2.56-.27,1.57.18.9c.21.72.42,1.81.63,3.28.21,1.47.31,2.59.31,3.37,0,.09-.08.21-.22.36l-.63.36-1.66,1.21-2.65,1.08-.85.4c-.15,0-.51-.22-1.08-.67v-.54l.36-4.58-.18-4c0-.6.08-1.04.25-1.33.16-.28.52-.61,1.06-.97l.09-.9-.76-1.48-.18-1.12-.72-1.26.18-1.3.09-3.68,1.48-1.84c.06-.12.09-.3.09-.54,0-.81-.29-1.21-.85-1.21-.24,0-.42.03-.54.09l-.45-.9v-1.12l.09-1.84v-.94c0-3.77-.99-5.66-2.96-5.66-.33,0-.81.12-1.44.36l-.94-1.39-1.12.31-.81.63-2.2.27-2.2.9-1.75.22-1.03.45-.54.99c-.84,1.62-1.37,2.86-1.59,3.73-.22.87-.34,1.93-.34,3.19v.72l.18,6.2-.09,1.08-1.21.45.22.94.99,1.48-.09,4.58.63,8.09c-.03.12-.15.3-.36.54-.21.24-.51.46-.9.67l-2.96,1.48c-.27.18-.66.27-1.17.27-.39,0-.85-.09-1.39-.27v-2.34l.09-4.49-.27-1.84.72-1.3.27-1.17-.81-.67-.09-1.08v-.63l.18-.67.81-1.17.36-.94v-.99c-.54-.06-.91-.26-1.1-.61-.2-.34-.29-1.16-.29-2.45,0-.9.01-1.63.04-2.2l.09-2.2v-.94l.72-.09.09-2.02-.18-1.48-.72-1.66-.36-3.37-.4-1.75-.18-1.21-.36.36-.99-.9c.54-.99,1.26-1.82,2.18-2.49.91-.67,2.33-1.38,4.25-2.13.78.69,1.28,1.23,1.5,1.62.22.39.34.96.34,1.71l-.09,1.66-.09,1.84,1.66-.36,1.75-1.84,1.26-.45,1.84-1.48,4.99-1.66.72-.36,1.03-.36c.48.51.72,1.15.72,1.93l.81.27.76-.27v-1.12c.81-.54,1.36-.81,1.66-.81.06,0,.27.06.63.18l.36-.27c.33-.06.64-.09.94-.09.96,0,1.77.35,2.43,1.06.66.7,1.11,1.7,1.35,2.99.09.45.19.77.31.97.12.2.37.38.76.56l.76-.63,1.44-1.48,1.75-.9,2.43-1.48,1.08-.27h.09l1.93.09,1.75-.54h2.7l1.53-.18,1.57.63,1.84.45c1.71.39,2.56,1.38,2.56,2.96-.48.39-.72.75-.72,1.08,0,.12.08.25.25.38.16.13.32.2.47.2.21,0,.43-.06.67-.18l.18.99.18,2.47.45,1.12.09.72-.18,2.96-.09,2.56v1.03l-.54.81c-.3.51-.45.85-.45,1.03l.54,4.85.18,1.48v.09l-.09,3.05.09.09.18,1.53c-.09.27-.42.58-.99.94v1.57l.81-.27.18.99v3.14l.63,1.93Z"/>
    <path class="cls-2" d="M386.6,392.22c-.57,1.26-.9,2.43-.99,3.5l-.27,4.45-.85,1.53c0,.06,0,.12-.02.18-.02.06-.04.13-.07.22,0,.39.37.81,1.12,1.26l-.18,1.39v8.71l-.18,7.01.63,2.96v1.53l.18,3.05c-.15.45-1.09,1.33-2.83,2.65l-2.25,1.75c-.36.39-.81.58-1.35.58-.39,0-.73-.12-1.03-.36-.3-.24-.45-.49-.45-.76,0-.78.24-1.69.72-2.74l.36-1.3-.45-.45.67-7.55.27-.76,1.17-.18v-1.44c0-.93-.08-1.62-.22-2.07-.15-.45-.52-1.05-1.12-1.8l.09-1.48v-.27l-.09-.76c0-.99.18-1.87.54-2.65l-.63-.76.09-2.47c.42-.24.63-.51.63-.81l-.09-.76-1.3-.18v-1.35l.09-1.21v-1.84c0-.81-.08-1.41-.25-1.8-.17-.39-.53-.81-1.1-1.26.39-1.05,1.27-1.96,2.65-2.74l4.31-2.47c.81.09,1.54.57,2.2,1.44ZM389.29,368.41c0,.66-.17,1.09-.49,1.3l-3.28,2.38-1.3,1.3-2.38,1.62c-1.59,1.17-2.55,1.75-2.88,1.75-.15,0-.31-.1-.47-.29-.17-.19-.25-.4-.25-.61,0-.69.18-1.21.54-1.57l4.63-4.4,2.47-3.32c.36-.18.76-.27,1.21-.27.6,0,1.12.2,1.55.61.43.4.65.91.65,1.5Z"/>
    <path class="cls-2" d="M441.54,427.84c0,.45-.34,1.27-1.03,2.47l-.18.36c-.6,1.23-1.42,1.92-2.47,2.07l-2.38.27-.94.54c-.12.06-.27.09-.45.09-.3,0-.51-.03-.63-.09l-1.84-.63-2.79-.76-2.29-.99-.9-.58.09-1.17c0-.75-.55-1.12-1.66-1.12h-1.03l-.27.58-.99-.58-5.88-4.85-1.39-.49-7.28-5.97c-.24-.12-.45-.18-.63-.18s-.35.1-.52.29c-.17.2-.25.41-.25.65v.09l1.03,12.04c0,.39-.2.79-.61,1.19s-.79.65-1.15.74l-3.05.72-1.17.76-1.03.45c-.42-.51-.63-.94-.63-1.3v-.45l.81-5.44-.45-8.98.94-.09c.36-.45.54-.84.54-1.17,0-.09-.03-.31-.09-.67-.93-.45-1.39-.91-1.39-1.39,0-.36.43-1.35,1.3-2.96-.06-.39-.46-.66-1.21-.81v-1.3l-.18-4.31-.09-2.88.18-3.46c.45-.24.73-.47.85-.7.12-.22.18-.64.18-1.24l-1.12-.18-.18-12.8c.75-.33,1.12-.76,1.12-1.3,0-.48-.08-.97-.22-1.48l-.9-.72v-1.93l-.63-4.85.45-4.54-.45-1.84-.4-.27-.09-1.3-.63-5.3.09-5.08-.36-1.21.45-3.01-.36-.76c.18-.36.32-.58.43-.65.1-.07.46-.22,1.06-.43.06-.06.88-.7,2.47-1.93l.9-.76c.39,0,.82-.12,1.3-.36l.85-.63.63.36v.72h-.27l-.45,2.43.27,7.55-.18,4.13c0,.99.12,2.13.36,3.41l-.85.72-.18,3.95.36.81.94.13.09.72-.09,2.83.36,1.93-.09.85.18,3.41-.18,6.33v4.31l-.45,2.88v.54c0,.54.06.91.18,1.12l.99,1.71c.03.06.05.11.07.16.01.04.02.1.02.16l-.36,2.65v.45l.36,5.44v1.12l-.09,2.11-.36,3.01v.09c0,.39.15,1.03.45,1.93l.58-.27,2.02-1.66,2.83-1.93,5.97-6.15,5.79-5.79,2.79-3.32c.84-1.02,2.34-2.14,4.49-3.37l1.21.9c.81.57,1.21,1.03,1.21,1.39,0,.87-.66,2.04-1.98,3.5l-.9.27c-.66.21-1.07.4-1.24.56s-.37.53-.61,1.1c-.99,0-1.87.18-2.65.54v1.08c0,.84-.22,1.42-.67,1.75l-2.65,2.02-1.21,1.03-.63.09h-.72c-.21.99-.43,1.57-.67,1.75l-1.93,1.12-1.57,1.53-1.44,1.12c-.87.54-1.3,1.15-1.3,1.84s.58,1.42,1.75,2.11c3.38,2.01,5.23,3.32,5.53,3.95l1.39,2.88c.33.51,1.18,1.02,2.56,1.53l1.17-.72,5.44,2.38c.45.21.67.49.67.85l-.09.54,1.84,1.12.72-.67,2.02.67,1.21.54h1.26c.33,0,.73.12,1.21.36.42-.42.82-.63,1.21-.63.27,0,.47.05.61.16.13.11.2.26.2.47Z"/>
    <path class="cls-2" d="M488.3,422.49c0,.39-.08.73-.22,1.03l-.9,1.57-2.11,3.64-1.93.13-1.21.99c-.27.27-.73.45-1.39.54l-8.09,1.57-1.26.45-2.88-.27-4.13.36-4.67-.27h-1.3c-.66-.51-1.06-.81-1.21-.9l-4.4-1.57-1.48-1.39-2.92-2.02-2.34-3.1-.9-.76c.36-.72.54-1.36.54-1.93,0-.24-.06-.42-.18-.54l-1.21-1.93-.27-2.56-.09-2.07c0-.69.16-1.6.49-2.74.51-1.8.93-2.88,1.26-3.23l1.66-2.11.85-1.93,2.11-2.02,2.29-3.01,2.02-1.12,2.92-2.02,1.93-1.3.67-.45,1.35-.27,4.09-1.3,3.19-.36,1.93-.81.94-.09c1.53,0,2.81.82,3.86,2.47.57-.06.99-.37,1.26-.94l1.21,1.03,1.66.9,3.77,3.68c.48.6.85,1.12,1.1,1.55.25.43.51.89.76,1.37.25.48.48,1,.67,1.57.19.57.49,1.44.88,2.61l.36,1.12-.45.18-1.75-.36-1.93.63-1.48-.27-1.66.45-3.14-.36-3.01.18-3.14-.54-5.12.09-2.52-.09-6.06.81-2.2-.09-3.05.9-1.08.22-.18,1.08c-.06.75-.17,1.26-.31,1.53-.15.27-.48.58-.99.94l.09.85c.99.75,1.51,1.21,1.57,1.39l1.17,4.58.58,1.12c-.3.3-.45.57-.45.81.03.06.06.12.09.18l1.71.54.4,1.12c.3,1.05.69,1.69,1.17,1.93l2.43.99.81,1.75c.42.21,1.09.38,2.02.49l.63,1.17,1.39.18,3.86,1.39,3.23-.63,8.54-1.39,1.84-1.12,2.88-1.75,2.38-3.1c.42-.51.91-.76,1.48-.76,1.05,0,1.57.46,1.57,1.39ZM477.7,401.34c0-.48-.55-1.48-1.66-3.01l-3.1-2.25-1.03-1.08-1.48-.09-3.41-.27-.81.18-1.93,1.08-2.47.58-3.14,1.17-1.21.45-1.44,2.16c-.9.63-1.39,1.02-1.48,1.17l-.18.54,5.53.4.63-.09,1.03-.31.99.22,2.65.54h.13l3.01-.54.94-.22.72,1.03h1.03l3.95-.81,1.62.18c.75-.09,1.12-.43,1.12-1.03Z"/>
  </g>
  <g>
    <path class="cls-3" d="M430.83,135.28c-36.19,23.42-84.15,12.66-107.23-24.06,36.19-23.42,84.15-12.66,107.23,24.06Z"/>
    <path class="cls-1" d="M298.14,118.2v-13.13c46.39,0,84.13-47.14,84.13-105.07h12.94c0,65.17-43.55,118.2-97.07,118.2Z"/>
    <ellipse class="cls-4" cx="119.66" cy="310.6" rx="38.83" ry="39.4"/>
    <ellipse class="cls-5" cx="145.54" cy="172.7" rx="38.83" ry="39.4"/>
    <path class="cls-5" d="M184.37,258.07c-16.68,0-30.86,10.69-36.36,25.68,6.48,7.04,10.47,16.46,10.47,26.86,0,4.83-.9,9.44-2.47,13.72,7.09,7.7,17.16,12.54,28.36,12.54,21.45,0,38.83-17.64,38.83-39.4s-17.38-39.4-38.83-39.4Z"/>
    <path class="cls-6" d="M148.02,283.74c3.84-10.48,11.99-18.77,22.22-22.86.72-3.01,1.19-6.14,1.19-9.38,0-21.76-17.38-39.4-38.83-39.4s-38.83,17.64-38.83,39.4c0,9.08,3.05,17.42,8.14,24.08,5.33-2.78,11.34-4.38,17.74-4.38,12.49,0,23.57,6.01,30.67,15.31-.73-.95-1.51-1.88-2.32-2.76Z"/>
    <path class="cls-6" d="M249.09,238.37c-18.49,0-33.94,13.13-37.84,30.7,7.36,7.16,11.96,17.23,11.96,28.4,0,2.99-.36,5.9-.98,8.7,6.98,6.8,16.43,11,26.87,11,21.45,0,38.83-17.64,38.83-39.4s-17.38-39.4-38.83-39.4Z"/>
    <path class="cls-4" d="M232.07,242.49c2.53-5.23,4.07-11.04,4.07-17.26,0-21.76-17.38-39.4-38.83-39.4-6.03,0-11.72,1.42-16.81,3.92-3.82,8.04-10.23,14.55-18.16,18.43-2.05,4.33-3.35,9.11-3.72,14.15,7.84,7.2,12.8,17.59,12.8,29.17,0,.97-.12,1.91-.19,2.86,1.82,1.67,3.81,3.15,5.91,4.46,2.35-.45,4.75-.76,7.23-.76,7.44,0,14.37,2.16,20.27,5.84,3.45-.67,6.67-1.92,9.73-3.45,3.79-7.81,10-14.13,17.7-17.97Z"/>
    <path class="cls-5" d="M262.03,172.7c-5.01,0-9.75,1.06-14.13,2.82-2.7,11.17-10.04,20.48-19.89,25.64,0,0,0,0,0,0,5.09,6.65,8.15,15,8.15,24.09,0,4.82-.94,9.39-2.54,13.64.63.69,1.31,1.33,1.99,1.97,4.21-1.58,8.74-2.48,13.49-2.48,10.24,0,19.53,4.05,26.47,10.62,14.77-5.58,25.3-19.96,25.3-36.89,0-21.76-17.38-39.4-38.83-39.4Z"/>
    <path class="cls-4" d="M313.8,212.1c-4.61,0-9.02.85-13.12,2.36-.94,15.88-11.05,29.23-25.12,34.54-.08-.09-.18-.15-.27-.24,7.74,7.2,12.63,17.51,12.63,29,0,.98-.08,1.94-.14,2.91,6.89,6.33,16,10.22,26.03,10.22,21.45,0,38.83-17.64,38.83-39.4s-17.38-39.4-38.83-39.4Z"/>
    <path class="cls-5" d="M326.74,146.44c-2.45,0-4.83.26-7.16.7-2.93,15.93-15.29,28.47-30.98,31.44-.27,1.42-.43,2.88-.54,4.35,7.84,7.21,12.8,17.59,12.8,29.18,0,.95-.15,1.86-.22,2.8.16-.2,8.59-2.8,13.16-2.8,10.24,0,19.53,4.05,26.47,10.62,14.77-5.58,25.3-19.96,25.3-36.89,0-21.76-17.38-39.4-38.83-39.4Z"/>
    <path class="cls-4" d="M242.61,61.07c-15.93,0-29.61,9.74-35.59,23.67,2.07,4.82,3.24,10.13,3.24,15.73s-1.16,10.91-3.24,15.73c1.71,3.98,4.11,7.56,6.95,10.73,9.85.95,18.6,5.65,24.91,12.66,1.24.12,2.46.28,3.73.28,0-21.76,17.38-39.4,38.83-39.4,0-21.76-17.38-39.4-38.83-39.4Z"/>
    <path class="cls-6" d="M171.43,61.07c-21.45,0-38.83,17.64-38.83,39.4,0,13.97,7.18,26.21,17.98,33.2,5.77.76,11.12,2.8,15.81,5.83,1.65.22,3.33.37,5.03.37,21.45,0,38.83-17.64,38.83-39.4s-17.38-39.4-38.83-39.4Z"/>
    <path class="cls-6" d="M242.98,144.99s-.03-.06-.05-.09h0c-6.9-10.92-18.94-18.17-32.67-18.17-4.08,0-7.99.69-11.67,1.87-4.28,4.26-9.52,7.51-15.37,9.4-2.95,2.93-5.5,6.27-7.42,10.02,5.36,6.76,8.58,15.33,8.58,24.67,0,6.22-1.48,12.07-4.01,17.3.05-.09.1-.16.14-.25,5.09-2.5,10.78-3.92,16.81-3.92,12.5,0,23.58,6.02,30.69,15.32,12.51-6.54,21.08-19.75,21.08-35.02,0-1.75-.16-3.45-.38-5.13-2.98-4.75-4.98-10.18-5.73-16.02Z"/>
    <path class="cls-6" d="M281.44,100.47c-21.45,0-38.83,17.64-38.83,39.4,0,13.78,6.98,25.89,17.54,32.93.62-.03,1.24-.1,1.87-.1,7.87,0,15.18,2.39,21.29,6.47,20.57-1,36.95-18.18,36.95-39.3s-17.38-39.4-38.83-39.4Z"/>
  </g>
</svg>
